<?xml version="1.0" encoding="utf-8"?>
<svg width="500px" height="500px" viewbox="0 0 500 500" version="1.1" xmlns:xlink="http://www.w3.org/1999/xlink" xmlns="http://www.w3.org/2000/svg">
  <defs>
    <filter id="filter_1">
      <feColorMatrix in="SourceGraphic" type="matrix" values="0 0 0 0 0.5019608 0 0 0 0 0.5019608 0 0 0 0 0.5019608 0 0 0 1 0" />
    </filter>
    <path d="M0 0L500 0L500 500L0 500L0 0Z" id="path_1" />
    <rect width="500" height="500" id="artboard_1" />
    <clipPath id="clip_1">
      <use xlink:href="#artboard_1" clip-rule="evenodd" />
    </clipPath>
    <clipPath id="mask_1">
      <use xlink:href="#path_1" />
    </clipPath>
  </defs>
  <g id="Artboard-2" clip-path="url(#clip_1)">
    <g id="icons8_contacts_2" transform="translate(0 16)" filter="url(#filter_1)">
      <path d="M0 0L500 0L500 500L0 500L0 0Z" id="Background" fill="none" fill-rule="evenodd" stroke="none" />
      <g clip-path="url(#mask_1)">
        <path d="M156.25 0C96.0083 0 46.875 49.1333 46.875 109.375C46.875 146.79 65.918 179.993 94.7266 199.707C38.8184 223.511 0 279.053 0 343.75L31.25 343.75C31.25 273.987 86.4868 218.75 156.25 218.75C226.013 218.75 281.25 273.987 281.25 343.75L312.5 343.75C312.5 279.053 273.682 223.511 217.773 199.707C246.582 179.993 265.625 146.79 265.625 109.375C265.625 49.1333 216.492 0 156.25 0L156.25 0ZM156.25 31.25C199.585 31.25 234.375 66.0401 234.375 109.375C234.375 152.71 199.585 187.5 156.25 187.5C112.915 187.5 78.125 152.71 78.125 109.375C78.125 66.0401 112.915 31.25 156.25 31.25L156.25 31.25Z" transform="translate(93.75 62.5)" id="Shape" fill="#FFFFFF" fill-rule="evenodd" stroke="none" />
      </g>
    </g>
  </g>
</svg>