<?xml version="1.0" encoding="utf-8"?>
<svg width="414px" height="1105px" viewBox="0 0 414 1105" version="1.1" xmlns:xlink="http://www.w3.org/1999/xlink" xmlns="http://www.w3.org/2000/svg">
  <desc>Created with Lunacy</desc>
  <defs>
    <filter filterUnits="userSpaceOnUse" color-interpolation-filters="sRGB" id="filter_1">
      <feFlood flood-opacity="0" result="BackgroundImageFix" />
      <feColorMatrix in="SourceAlpha" type="matrix" values="0 0 0 0 0 0 0 0 0 0 0 0 0 0 0 0 0 0 127 0" />
      <feOffset dx="0" dy="2" />
      <feGaussianBlur stdDeviation="2" />
      <feColorMatrix type="matrix" values="0 0 0 0 0.3921569 0 0 0 0 0.3921569 0 0 0 0 0.3921569 0 0 0 0.4980392 0" />
      <feBlend mode="normal" in2="BackgroundImageFix" result="effect0_dropShadow" />
      <feBlend mode="normal" in="SourceGraphic" in2="effect0_dropShadow" result="shape" />
    </filter>
  </defs>
  <g filter="url(#filter_1)">
    <path d="M70.7981 4.75998C68.6758 8.63797 65.6798 16.9861 65.6798 16.9861C65.6798 16.9861 65.202 16.1881 64.8266 15.8487C64.4513 15.5094 60.0544 15.6183 58.5245 15.5838C56.9947 15.5494 55.91 17.2452 54.7613 17.9783C53.6126 18.7114 48.1265 17.5753 47.5769 18.6625C47.3558 19.0997 46.1324 20.0564 45.5242 20.7149C44.9159 21.3734 41.7288 21.6248 40.3924 23.4514C39.7582 24.3184 35.5247 32.205 33.8922 39.5287C33.8922 39.5287 32.1743 49.9183 32.1817 53.2114C32.189 56.5046 34.4576 59.972 34.5537 62.1055C34.6108 63.374 33.8694 67.9206 33.8694 67.9206C33.8694 67.9206 33.5501 68.7368 30.8132 68.9467C28.0763 69.1565 24.313 82.6294 24.313 82.6294L18.8391 82.9715C18.8391 82.9715 18.3909 86.2291 19.8655 89.1288C21.34 92.0284 3.13055 162.631 1.39126 179.556C-0.348018 196.482 -1.64777 202.452 5.15453 206.8C11.9568 211.149 79.6438 248.39 97.8678 267.347C108.234 278.13 118.238 300.992 124.139 325.964C130.041 350.935 130.648 358.433 121.132 370.652C117.95 374.737 100.923 409.517 99.5784 408.963C98.2338 408.41 91.7128 424.82 92.3939 425.041C94.23 425.635 74.1042 456.254 73.9197 466.431C73.8491 470.326 66.3027 477.471 67.0774 480.798C70.6228 496.025 101.092 511.121 102.999 512.611C104.907 514.1 107.451 507.077 109.5 508.506C111.548 509.934 127.29 512.953 127.29 512.953C127.29 512.953 127.064 552.021 129.342 592.655C131.62 633.288 137.288 679.908 135.5 682.961C134.988 683.837 134.192 691.306 136.185 692.539C138.177 693.772 137.965 713.211 136.185 714.089C135.239 714.556 133.416 722.831 135.5 722.641C137.585 722.452 138.391 740.95 137.211 741.455C136.031 741.96 133.69 746.613 135.5 751.033C137.311 755.453 131.081 776.359 130.369 801.317C129.656 826.275 135.226 861.163 137.553 884.097C139.88 907.033 138.172 910.663 134.816 916.936C132.637 921.011 133.476 928.625 135.842 928.908C136.604 929 139.339 934.885 138.237 936.777C137.135 938.667 135.145 955.265 135.158 959.011C135.172 962.757 137.895 961.405 137.895 961.405C137.895 961.405 135.16 998.422 135.158 1009.29C135.156 1020.17 135.163 1022.29 133.106 1033.24C131.048 1044.18 162.634 1091.86 166.975 1091.73C171.316 1091.6 178.715 1078.52 181.002 1069.15C183.289 1059.79 185.833 1039.13 183.739 1031.87C181.644 1024.6 180.999 1020.42 177.581 1012.71C174.162 1005 176.212 982.952 176.212 982.952L183.397 979.189C183.397 979.189 191.069 981.338 191.265 979.531C191.381 978.461 191.265 974.4 191.265 974.4C191.265 974.4 195.471 972.124 196.739 971.664C199.852 970.533 189.697 960.293 188.528 951.824C188.294 950.125 185.578 944.146 186.133 939.167C186.456 936.283 187.483 929.363 187.502 928.221C187.538 926.015 184.262 925.591 183.739 921.38C183.216 917.169 186.133 909.653 186.133 905.986C186.133 902.321 183.91 902.762 183.739 899.829C183.639 898.123 185.328 878.336 186.818 866.307C188.307 854.277 194.605 841.579 195.713 827.653C198.361 794.346 191.867 761.722 194.344 759.582C196.821 757.441 197.423 747.951 197.423 747.951C197.423 747.951 199.858 738.663 197.423 738.031C194.989 737.4 195.758 727.624 196.739 725.033C197.72 722.441 198.897 720.091 200.16 717.165C201.423 714.24 197.696 711.797 197.423 706.561C197.423 706.561 199.682 701.528 198.45 687.063C197.218 672.598 203.779 656.936 205.292 645.331C206.805 633.726 215.555 579.214 216.924 568.365C218.293 557.518 219.896 558.278 223.082 569.392C224.539 574.475 234.618 600.503 250.451 632.332C266.284 664.162 285.215 691.798 286.373 695.957C287.532 700.116 286.428 703.766 287.057 707.245C287.687 710.724 290.58 716.024 289.11 721.612C287.641 727.2 291.054 732.354 290.479 743.846C289.903 755.339 278.165 771.427 279.531 799.603C280.897 827.78 289.786 880.725 284.321 900.513C278.855 920.302 281.409 912.295 282.61 917.275C283.074 919.197 275.742 929.476 272.689 933.01C269.635 936.544 276.482 941.388 275.768 946.693C275.621 947.784 272.535 950.17 272.004 953.876C272.004 953.876 268.771 993.511 270.294 998.003C271.184 1000.63 297.333 1014.34 302.453 1019.9C304.516 1022.14 314.974 1034.63 330.506 1042.47C346.038 1050.31 376.452 1053.76 382.166 1045.89C384.496 1042.68 383.778 1036.13 374.175 1030.84C364.572 1025.55 351.717 1011.69 351.717 1011.69C351.717 1011.69 339.585 955.84 340.427 950.797C340.712 949.094 336.874 945.132 336.664 939.167C336.454 933.202 335.296 930.896 337.006 926.511C337.617 924.947 340.14 913.146 338.375 911.118C336.609 909.089 333.459 888.753 335.638 870.412C337.816 852.07 358.121 764.367 359.928 741.11C361.054 726.619 360.494 709.751 356.849 704.166C353.204 698.582 354.824 688.099 354.112 685.695C353.401 683.29 350.691 682.958 350.691 682.958L350.007 676.117C350.007 676.117 346.115 677.291 346.586 670.644C347.056 663.997 316.137 551.946 316.137 551.946C316.137 551.946 339.84 546.977 341.472 541.771C343.104 536.565 335.315 495.849 332.901 487.295C330.487 478.742 316.786 449.37 312.716 444.537C308.646 439.704 312.746 365.93 312.746 365.93L324.69 400.068C324.69 400.068 325.662 419.77 331.875 444.879C338.087 469.988 342.949 487.987 342.48 509.188C342.011 530.388 342.676 529.114 346.928 530.396C347.22 530.484 347.612 536.211 347.612 536.211C347.612 536.211 347.825 539.34 349.322 538.948C350.82 538.556 351.055 543.557 350.349 546.131C350.094 547.059 345.37 562.529 343.164 565.629L339.401 563.919L331.533 570.418L331.875 575.549L330.848 577.601L331.875 580.68L334.954 581.022L361.986 657.847L369.083 656.994L372.213 665.524L377.897 663.817L376.184 659.552L384.147 657.847C384.147 657.847 371.606 624.191 372.244 625.149C372.883 626.106 382.811 617.947 383.534 616.255C384.257 614.563 381.139 605.309 381.139 605.309C381.139 605.309 383.575 605.309 385.587 604.283C387.599 603.256 388.323 601.204 388.323 601.204C388.323 601.204 390.94 600.278 392.771 598.81C394.602 597.341 394.824 594.363 394.824 594.363C394.824 594.363 396.956 594.52 398.587 593.336C400.218 592.153 400.024 588.081 399.956 586.153C399.888 584.225 396.876 580.68 396.876 580.68L399.271 577.601L398.245 568.708L390.718 556.051L386.271 553.657C386.271 553.657 380.059 545.781 378.06 543.395C376.061 541.008 376.692 537.921 376.692 537.921L379.748 537.238L379.748 528.686C379.748 528.686 381.084 529.068 381.116 527.66C381.129 527.085 381.281 507.416 379.748 494.822C378.215 482.227 374.741 443.369 374.274 433.933C373.807 424.498 364.947 390.149 362.642 377.834C360.337 365.519 357.403 329.275 354.773 326.182C352.144 323.089 353.747 320.367 353.747 320.367C353.747 320.367 356.208 314.785 353.063 306.684C349.918 298.583 356.493 286.342 357.852 278.635C359.211 270.927 358.905 254.245 357.168 249.559C355.431 244.873 318.388 231.684 310.298 228.693C306.251 227.196 283.445 221.064 279.85 216.378C276.255 211.692 264.797 202.011 264.797 202.011C264.797 202.011 264.574 200.264 264.113 198.591C263.652 196.917 250.77 194.144 250.77 194.144L247.007 187.302C247.007 187.302 248.525 177.167 250.428 172.251C252.332 167.335 251.113 155.49 251.113 155.49L257.271 155.832L254.192 152.411L254.192 149.675L260.008 152.754L256.929 142.492L258.981 141.123L263.771 140.097L251.797 132.229L252.139 129.835L260.35 130.177L250.77 122.652L257.271 114.1L241.191 115.81L245.639 108.627L232.98 111.705L228.533 110.337L229.559 99.391L212.454 110.679L209.032 109.653L215.875 100.759L201.848 110.679L200.137 111.363L199.111 96.6544L188.848 113.074L188.505 109.311L189.385 99.933L182.005 118.205L180.295 119.573L177.9 110.337L174.821 128.809L174.479 136.334L171.058 134.624L168.663 126.072L166.952 143.86L161.136 156.858L165.242 152.754L166.61 153.78L164.9 159.937L172.426 160.279L172.768 163.7L163.873 167.462C163.873 167.462 174.846 175.672 178.584 177.382C182.322 179.092 183.032 179.435 183.032 179.435C183.032 179.435 183.476 186.966 184.058 189.013C184.64 191.06 186.991 194.572 187.821 195.512C188.651 196.452 191.242 199.275 191.242 199.275C191.242 199.275 146.391 178.53 141.294 177.04C136.196 175.551 127.64 177.757 125.556 178.409C123.473 179.061 118.372 189.013 118.372 189.013C118.372 189.013 116.976 192.47 114.951 192.775C113.992 192.92 112.678 191.037 111.187 190.381C109.697 189.725 102.954 189.611 101.608 191.749C100.263 193.887 95.2791 189.187 87.9236 186.96C80.5681 184.734 63.6334 181.145 63.6334 181.145C63.6334 181.145 60.4516 175.613 57.4754 171.909C54.4991 168.206 52.6858 166.094 52.6858 166.094C52.6858 166.094 51.745 154.351 52.6858 137.361C53.6265 120.37 53.0279 116.836 53.0279 116.836C53.0279 116.836 58.7648 77.6263 56.7911 76.4724C54.8175 75.3185 54.7384 74.7621 54.7384 74.7621L58.5017 67.5786C58.5017 67.5786 67.5993 65.506 71.5021 61.7634C75.4049 58.0209 78.958 46.1851 79.3707 42.6076C79.5645 40.9281 79.326 37.7474 79.2303 35.4242C79.1221 32.799 79.3206 30.6693 78.8881 28.5828C78.0728 24.6498 74.2227 29.4844 74.4948 32.9084C74.7668 36.3323 73.7564 39.8711 73.7564 39.8711C73.7564 39.8711 69.9496 45.9989 68.9668 45.3442C67.9839 44.6896 69.2334 33.0549 71.0826 27.2218C72.9317 21.3888 74.8407 11.652 76.4847 5.32863C78.1288 -0.994706 74.6634 -2.30277 70.7981 4.75998L70.7981 4.75998Z" transform="translate(6.5 4.5)" id="New-shape" fill="#212529" stroke="#212529" stroke-width="1" />
  </g>
</svg>